<?xml version="1.0" encoding="UTF-8"?>
<svg id="Layer_1" data-name="Layer 1" xmlns="http://www.w3.org/2000/svg" viewBox="0 0 580.4 82.3">
  <defs>
    <style>
      .cls-1 {
        fill: #FFFFFF;
      }

      .cls-2 {
        fill: #D4AF37;
      }
    </style>
  </defs>
  <g>
    <g>
      <path class="cls-1" d="M244.2,73.9c-2.2,1.7-4.6,3.2-7.2,4.4-2.6,1.2-5.4,2.2-8.5,2.8-3.1.6-6.5,1-10.2,1-5.8,0-11.2-1.1-16.1-3.2-4.9-2.1-9.2-5-12.8-8.7-3.6-3.7-6.4-8-8.5-13-2-5-3.1-10.4-3.1-16.1s1-11,3-16c2-5,4.8-9.4,8.5-13.1s7.9-6.7,12.9-8.9c5-2.2,10.5-3.2,16.6-3.2s6.9.3,9.9.9c3,.6,5.7,1.5,8.2,2.6,2.5,1.1,4.8,2.4,6.9,3.9,2.1,1.5,4.1,3.2,6,5l-9,10.3c-3.2-3-6.5-5.3-10.1-7.2-3.6-1.8-7.6-2.7-12.1-2.7s-7.3.7-10.5,2.2c-3.2,1.5-6,3.5-8.3,6-2.3,2.5-4.2,5.5-5.4,8.9-1.3,3.4-1.9,7.1-1.9,11s.6,7.6,1.9,11.1c1.3,3.4,3.1,6.5,5.4,9,2.3,2.6,5.1,4.6,8.3,6.1,3.2,1.5,6.7,2.2,10.5,2.2s9-.9,12.5-2.8c3.5-1.9,6.9-4.4,10.3-7.5l9,9.1c-2,2.2-4.2,4.1-6.4,5.8Z"/>
      <path class="cls-1" d="M326.8,14h-44.9v20.4h39.8v12.6h-39.8v21.2h45.5v12.6h-59.4V1.4h58.8v12.6Z"/>
      <path class="cls-1" d="M397.9,80.8l-19.6-27.7h-17.5v27.7h-13.8V1.4h35.4c4.5,0,8.6.6,12.3,1.8,3.7,1.2,6.8,2.8,9.3,5,2.5,2.2,4.5,4.8,5.8,7.9,1.4,3.1,2,6.6,2,10.5s-.5,6.3-1.4,8.9c-.9,2.6-2.3,4.9-3.9,6.9-1.7,2-3.7,3.7-6,5.1-2.3,1.4-4.9,2.5-7.7,3.2l21.5,30.1h-16.5ZM393.3,17.3c-2.9-2.2-6.9-3.4-12.2-3.4h-20.4v26.8h20.5c5,0,9-1.2,12-3.6,3-2.4,4.4-5.7,4.4-9.8s-1.4-7.7-4.3-10Z"/>
      <path class="cls-1" d="M465.1,80.8h-14.1V14.3h-25.2V1.4h64.5v12.9h-25.2v66.5Z"/>
      <path class="cls-1" d="M536.2,71.4c-1.1,2.3-2.7,4.3-4.7,5.8-2,1.6-4.4,2.7-7.1,3.5-2.7.8-5.6,1.2-8.7,1.2s-8.7-.8-13.1-2.3c-4.4-1.5-8.5-3.7-12.3-6.7l6.1-9.3c3.3,2.4,6.6,4.3,9.9,5.5,3.4,1.2,6.6,1.9,9.7,1.9s5.2-.6,6.9-1.8c1.6-1.2,2.4-2.7,2.4-4.7v-.2c0-1.1-.4-2.1-1.1-3-.7-.8-1.7-1.6-3-2.2-1.2-.6-2.7-1.2-4.3-1.7-1.6-.5-3.3-1-5.1-1.5-2.2-.7-4.4-1.4-6.6-2.3-2.2-.8-4.2-1.9-6-3.2-1.8-1.3-3.2-3-4.4-4.9s-1.7-4.3-1.7-7.2v-.2c0-2.8.5-5.3,1.6-7.6,1.1-2.3,2.6-4.2,4.5-5.8,1.9-1.6,4.2-2.8,6.8-3.6,2.6-.8,5.4-1.2,8.3-1.2s7.6.6,11.5,1.8c3.9,1.2,7.4,2.9,10.6,5l-5.4,9.8c-2.9-1.7-5.8-3.1-8.7-4.1-3-1-5.7-1.5-8.2-1.5s-4.7.6-6.2,1.7c-1.5,1.1-2.2,2.6-2.2,4.3v.2c0,1.1.4,2,1.1,2.8.8.8,1.8,1.5,3,2.2,1.2.6,2.7,1.2,4.3,1.8s3.3,1.1,5.1,1.6c2.2.7,4.4,1.5,6.6,2.4,2.2.9,4.2,2,6,3.3,1.8,1.3,3.2,2.9,4.4,4.8,1.1,1.9,1.7,4.2,1.7,6.9v.2c0,3.2-.6,5.9-1.7,8.3Z"/>
    </g>
    <path class="cls-2" d="M79.4,2.3h-16.1l-12.1,28.4h-20.9L12,12.4c.8-1,1.2-2.3,1.2-3.7,0-3.5-2.8-6.3-6.3-6.3S.6,5.2.6,8.6s2.8,6.3,6.3,6.3,1.6-.2,2.3-.4l19.7,19.7h20.8l-2.7,6.4H12.7c-.8-2.6-3.2-4.6-6.1-4.6S.3,38.8.3,42.3s2.8,6.3,6.3,6.3,5.3-1.9,6.1-4.6h32.8l-2.7,6.4h-14.6l-19.7,19.7c-.7-.3-1.5-.4-2.3-.4-3.5,0-6.3,2.8-6.3,6.3s2.8,6.3,6.3,6.3,6.3-2.8,6.3-6.3-.5-2.7-1.2-3.7l18.3-18.3h11.6l-12.1,28.4h17.8l7.3-17.8h33.6l7.3,17.8h18.3L79.4,2.3ZM60.6,49l10.6-25.8,10.6,25.8h-21.1Z"/>
    <path class="cls-2" d="M129.6,81.9V2.5h17.5v79.4h-17.5Z"/>
  </g>
  <path class="cls-1" d="M564.1,0c-9,0-16.2,7.3-16.2,16.2s7.3,16.2,16.2,16.2,16.2-7.3,16.2-16.2S573.1,0,564.1,0M564.1,29.2c-7.2,0-13-5.8-13-13s5.8-13,13-13,13,5.8,13,13-5.8,13-13,13M564.6,18.3h-2.3v5.2h-2.9v-14.2h5.3c1.4,0,2.8.3,3.9,1.1.9.8,1.5,2,1.4,3.2,0,.9-.2,1.7-.6,2.4-.5.7-1.1,1.3-1.9,1.6l3.1,5.8v.2h-3.1l-2.7-5.2M562.2,16h2.4c.6,0,1.2-.2,1.7-.6.4-.4.7-1,.6-1.6,0-.6-.2-1.2-.6-1.6-.5-.4-1.1-.6-1.8-.6h-2.4v4.4Z"/>
</svg>